<?xml version="1.0" encoding="UTF-8"?>
<svg version="1.1" xmlns="http://www.w3.org/2000/svg" width="53" height="41">
<path d="M0 0 C17.49 0 34.98 0 53 0 C53 13.53 53 27.06 53 41 C35.51 41 18.02 41 0 41 C0 27.47 0 13.94 0 0 Z " fill="#020103" transform="translate(0,0)"/>
<path d="M0 0 C13 0 13 0 18 3 C18.5 6 18.5 6 18 9 C16.5 10.875 16.5 10.875 15 12 C15.66 12.350625 16.32 12.70125 17 13.0625 C19 15 19 15 19.5625 18.4375 C19 22 19 22 16.921875 24.20703125 C11.64287277 27.44641898 6.04438042 26.22595815 0 26 C0 17.42 0 8.84 0 0 Z " fill="#5995DD" transform="translate(29,7)"/>
<path d="M0 0 C13 0 13 0 18 4 C18.5625 6.9375 18.5625 6.9375 18 10 C16 12.875 16 12.875 14 15 C14.5053125 15.71027344 15.010625 16.42054687 15.53125 17.15234375 C16.1809375 18.07144531 16.830625 18.99054687 17.5 19.9375 C18.1496875 20.85402344 18.799375 21.77054688 19.46875 22.71484375 C21 25 21 25 21 26 C18.69 26 16.38 26 14 26 C13.68546875 25.36191406 13.3709375 24.72382813 13.046875 24.06640625 C12.61890625 23.24011719 12.1909375 22.41382812 11.75 21.5625 C11.33234375 20.73878906 10.9146875 19.91507813 10.484375 19.06640625 C9.01047374 16.54473322 9.01047374 16.54473322 5 16 C5 19.3 5 22.6 5 26 C3.35 26 1.7 26 0 26 C0 17.42 0 8.84 0 0 Z " fill="#E140B5" transform="translate(6,7)"/>
<path d="M0 0 C3.63 0 7.26 0 11 0 C11 1.32 11 2.64 11 4 C9.35 4 7.7 4 6 4 C6 6.31 6 8.62 6 11 C6.99 11 7.98 11 9 11 C9 12.32 9 13.64 9 15 C8.01 15 7.02 15 6 15 C6 17.31 6 19.62 6 22 C8.31 22 10.62 22 13 22 C12.67 23.32 12.34 24.64 12 26 C8.04 26 4.08 26 0 26 C0 17.42 0 8.84 0 0 Z " fill="#897DF6" transform="translate(29,7)"/>
<path d="M0 0 C3.69212837 -0.3434538 5.60790131 -0.221621 8.875 1.625 C11 4 11 4 11.5625 6.9375 C10.88971155 10.60045935 9.5249075 12.31728578 7 15 C7.5053125 15.71027344 8.010625 16.42054687 8.53125 17.15234375 C9.1809375 18.07144531 9.830625 18.99054687 10.5 19.9375 C11.1496875 20.85402344 11.799375 21.77054688 12.46875 22.71484375 C14 25 14 25 14 26 C11.69 26 9.38 26 7 26 C6.66226562 25.36191406 6.32453125 24.72382813 5.9765625 24.06640625 C5.53054687 23.24011719 5.08453125 22.41382812 4.625 21.5625 C3.96371094 20.32693359 3.96371094 20.32693359 3.2890625 19.06640625 C2.16581441 16.86533422 2.16581441 16.86533422 0 16 C0.3125 14.125 0.3125 14.125 1 12 C1.99 11.34 2.98 10.68 4 10 C4.72965366 7.43717258 4.72965366 7.43717258 5 5 C3.35 4.67 1.7 4.34 0 4 C0 2.68 0 1.36 0 0 Z " fill="#BA46DC" transform="translate(13,7)"/>
<path d="M0 0 C1.32 0 2.64 0 4 0 C4 8.58 4 17.16 4 26 C2.68 26 1.36 26 0 26 C0 17.42 0 8.84 0 0 Z " fill="#8E5DE6" transform="translate(29,7)"/>
<path d="M0 0 C2.31 0.33 4.62 0.66 7 1 C7.125 3.375 7.125 3.375 7 6 C5 8 5 8 2.375 8.125 C1.59125 8.08375 0.8075 8.0425 0 8 C0 5.36 0 2.72 0 0 Z " fill="#1C091A" transform="translate(11,11)"/>
<path d="M0 0 C2.31 0.33 4.62 0.66 7 1 C7 2.65 7 4.3 7 6 C4.69 6.33 2.38 6.66 0 7 C0 4.69 0 2.38 0 0 Z " fill="#07080E" transform="translate(35,22)"/>
<path d="M0 0 C5.75 -0.125 5.75 -0.125 8 1 C8.36923077 5.55384615 8.36923077 5.55384615 6.5 7.8125 C6.005 8.204375 5.51 8.59625 5 9 C5 7.68 5 6.36 5 5 C3.35 4.67 1.7 4.34 0 4 C0 2.68 0 1.36 0 0 Z " fill="#C347D7" transform="translate(13,7)"/>
<path d="M0 0 C2.97 0.495 2.97 0.495 6 1 C6.042721 2.66611905 6.04063832 4.33382885 6 6 C5 7 5 7 2.4375 7.0625 C1.2309375 7.0315625 1.2309375 7.0315625 0 7 C0 4.69 0 2.38 0 0 Z " fill="#06070D" transform="translate(35,11)"/>
<path d="M0 0 C1.32 0 2.64 0 4 0 C4 1.32 4 2.64 4 4 C2.35 4 0.7 4 -1 4 C-1 6.31 -1 8.62 -1 11 C-1.33 11 -1.66 11 -2 11 C-2.25 3.375 -2.25 3.375 0 0 Z " fill="#807FEC" transform="translate(36,7)"/>
<path d="M0 0 C0.99 0.33 1.98 0.66 3 1 C3.1875 4.375 3.1875 4.375 3 8 C2.01 8.66 1.02 9.32 0 10 C0 6.7 0 3.4 0 0 Z " fill="#31A0D3" transform="translate(45,21)"/>
<path d="M0 0 C1.485 0.99 1.485 0.99 3 2 C3.25660094 5.07921132 3.39431504 7.21136993 2 10 C1.34 10 0.68 10 0 10 C0 6.7 0 3.4 0 0 Z " fill="#409CD5" transform="translate(44,8)"/>
<path d="M0 0 C0.66 0 1.32 0 2 0 C2.99 1.98 3.98 3.96 5 6 C3.02 6 1.04 6 -1 6 C-0.67 4.02 -0.34 2.04 0 0 Z " fill="#AE45EB" transform="translate(22,27)"/>
<path d="M0 0 C0.99 0 1.98 0 3 0 C3 1.32 3 2.64 3 4 C2.01 4 1.02 4 0 4 C0 6.31 0 8.62 0 11 C-0.33 11 -0.66 11 -1 11 C-1.0270043 9.54176788 -1.04639787 8.08339325 -1.0625 6.625 C-1.07410156 5.81289063 -1.08570313 5.00078125 -1.09765625 4.1640625 C-1 2 -1 2 0 0 Z " fill="#847AEC" transform="translate(35,18)"/>
<path d="M0 0 C0 1.98 0 3.96 0 6 C-1.32 6 -2.64 6 -4 6 C-4 4.68 -4 3.36 -4 2 C-1 0 -1 0 0 0 Z " fill="#7092ED" transform="translate(42,16)"/>
</svg>
